<?xml version="1.0" encoding="UTF-8" standalone="no"?>
<!DOCTYPE svg PUBLIC "-//W3C//DTD SVG 1.1//EN" "http://www.w3.org/Graphics/SVG/1.1/DTD/svg11.dtd">
<svg width="100%" height="100%" viewBox="0 0 465 144" version="1.1" xmlns="http://www.w3.org/2000/svg" xmlns:xlink="http://www.w3.org/1999/xlink" xml:space="preserve" xmlns:serif="http://www.serif.com/" style="fill-rule:evenodd;clip-rule:evenodd;stroke-linejoin:round;stroke-miterlimit:2;">
    <g transform="matrix(1,0,0,1,-1523.98,-241.749)">
        <g transform="matrix(1,0,0,1,3252.2,-242.47)">
            <g transform="matrix(0.219081,0,0,0.219081,-1774.16,455.396)">
                <g transform="matrix(8.24741,0,0,8.33148,-9151.41,-40166.4)">
                    <path d="M1184.68,4891.14C1181.05,4892.97 1177.37,4893.27 1173.63,4892.04C1169.67,4890.77 1166.25,4888.07 1163.38,4883.94C1161.85,4881.74 1160.53,4879.19 1159.43,4876.29L1157.83,4872.04L1146.03,4872.04L1143.38,4878.34C1143.22,4878.77 1143.13,4879.12 1143.13,4879.39C1143.13,4879.65 1143.19,4879.94 1143.31,4880.26C1143.43,4880.58 1143.68,4880.86 1144.06,4881.11C1144.44,4881.36 1144.87,4881.49 1145.33,4881.49L1145.73,4881.49L1145.73,4881.99L1135.03,4881.99L1135.03,4881.49L1135.48,4881.49C1136.25,4881.49 1137.01,4881.26 1137.76,4880.81C1138.51,4880.36 1139.13,4879.69 1139.63,4878.79L1150.78,4853.34C1149.48,4850.4 1148.1,4848.39 1146.63,4847.29C1145.4,4846.35 1144.23,4845.89 1143.11,4845.89C1141.99,4845.89 1140.95,4846.05 1139.98,4846.39L1139.88,4845.89C1142.28,4844.65 1144.58,4844.04 1146.78,4844.04C1149.52,4844.04 1151.97,4845.1 1154.13,4847.24C1156.27,4849.34 1158.15,4852.37 1159.78,4856.34L1167.03,4874.24C1169.77,4881 1172.57,4885.65 1175.43,4888.19C1176.6,4889.22 1177.8,4889.94 1179.03,4890.34C1180.27,4890.74 1181.31,4890.94 1182.16,4890.94C1183.01,4890.94 1183.83,4890.84 1184.63,4890.64L1184.68,4891.14ZM1146.88,4869.89L1157.08,4869.89L1153.58,4860.64C1153.42,4860.17 1153.18,4859.53 1152.88,4858.71C1152.58,4857.89 1152.38,4857.32 1152.28,4856.99L1146.88,4869.89Z" style="fill:url(#_Linear1);fill-rule:nonzero;"/>
                </g>
                <g transform="matrix(8.24741,0,0,8.33148,-9151.41,-40166.4)">
                    <path d="M1174.38,4881.49C1175.25,4881.49 1175.99,4881.18 1176.61,4880.56C1177.23,4879.94 1177.55,4879.2 1177.58,4878.34L1177.58,4850.64C1177.55,4849.77 1177.23,4849.03 1176.61,4848.41C1175.99,4847.79 1175.25,4847.49 1174.38,4847.49L1173.73,4847.49L1173.73,4846.99L1188.93,4846.99L1188.88,4847.49L1188.28,4847.49C1187.42,4847.49 1186.67,4847.79 1186.03,4848.41C1185.4,4849.03 1185.08,4849.77 1185.08,4850.64L1185.08,4879.84L1191.63,4879.84C1194.07,4879.84 1196.11,4879.14 1197.76,4877.74C1199.41,4876.34 1200.63,4874.35 1201.43,4871.79L1201.93,4871.79L1199.63,4881.99L1173.73,4881.99L1173.73,4881.49L1174.38,4881.49Z" style="fill:url(#_Linear2);fill-rule:nonzero;"/>
                </g>
                <g transform="matrix(8.24741,0,0,8.33148,-9151.41,-40166.4)">
                    <path d="M1203.03,4867.39L1203.43,4865.74L1218.43,4865.74L1218.83,4867.39L1218.43,4869.09L1203.43,4869.09L1203.03,4867.39Z" style="fill:url(#_Linear3);fill-rule:nonzero;"/>
                </g>
                <g transform="matrix(8.24741,0,0,8.33148,-9151.41,-40166.4)">
                    <path d="M1233.88,4865.79L1233.88,4878.34C1233.88,4879.2 1234.2,4879.94 1234.83,4880.56C1235.47,4881.18 1236.22,4881.49 1237.08,4881.49L1237.68,4881.49L1237.73,4881.99L1222.53,4881.99L1222.53,4881.49L1223.18,4881.49C1224.05,4881.49 1224.79,4881.18 1225.41,4880.56C1226.03,4879.94 1226.35,4879.2 1226.38,4878.34L1226.38,4850.49C1226.32,4849.65 1225.98,4848.94 1225.36,4848.36C1224.74,4847.78 1224.02,4847.49 1223.18,4847.49L1222.53,4847.49L1222.53,4846.99L1241.68,4846.99C1243.15,4846.99 1244.43,4846.87 1245.53,4846.64C1246.63,4846.4 1247.35,4846.22 1247.68,4846.09L1247.68,4854.54L1247.18,4854.54L1247.18,4854.04C1247.18,4852.04 1246.43,4850.62 1244.93,4849.79C1244.23,4849.39 1243.4,4849.17 1242.43,4849.14L1233.88,4849.14L1233.88,4863.69L1248.28,4863.69C1249.52,4863.65 1250.53,4863.23 1251.33,4862.41C1252.13,4861.59 1252.53,4860.59 1252.53,4859.39L1252.53,4858.94L1253.03,4858.94L1253.03,4870.49L1252.53,4870.49L1252.53,4870.09C1252.53,4868.85 1252.14,4867.84 1251.36,4867.04C1250.58,4866.24 1249.58,4865.82 1248.38,4865.79L1233.88,4865.79Z" style="fill:url(#_Linear4);fill-rule:nonzero;"/>
                </g>
                <g transform="matrix(8.24741,0,0,8.33148,-9151.41,-40166.4)">
                    <path d="M1298.78,4836.84C1299.22,4836.84 1299.67,4836.85 1300.13,4836.89L1300.13,4837.39C1296.2,4837.69 1293.37,4839.55 1291.63,4842.99C1290.5,4845.22 1289.93,4848.05 1289.93,4851.49L1289.93,4869.34C1289.87,4873.54 1288.52,4876.81 1285.88,4879.16C1283.25,4881.51 1279.49,4882.69 1274.61,4882.69C1269.73,4882.69 1265.83,4881.48 1262.93,4879.06C1260.03,4876.64 1258.6,4873.42 1258.63,4869.39L1258.63,4849.94C1258.63,4849.24 1258.38,4848.65 1257.86,4848.19C1257.34,4847.72 1256.72,4847.49 1255.98,4847.49L1255.18,4847.49L1255.18,4846.99L1269.58,4846.99L1269.58,4847.49L1268.78,4847.49C1267.75,4847.49 1266.98,4847.89 1266.48,4848.69C1266.25,4849.05 1266.13,4849.45 1266.13,4849.89L1266.13,4868.99C1266.13,4872.52 1267.05,4875.32 1268.88,4877.39C1270.72,4879.45 1273.13,4880.49 1276.13,4880.49L1276.23,4880.49C1279.2,4880.49 1281.63,4879.52 1283.53,4877.59C1285.43,4875.65 1286.38,4873 1286.38,4869.64L1286.38,4851.49C1286.38,4846.99 1287.58,4843.42 1289.96,4840.79C1292.34,4838.15 1295.28,4836.84 1298.78,4836.84Z" style="fill:url(#_Linear5);fill-rule:nonzero;"/>
                </g>
                <g transform="matrix(8.24741,0,0,8.33148,-9151.41,-40166.4)">
                    <path d="M1341.08,4891.14C1337.45,4892.97 1333.77,4893.27 1330.03,4892.04C1326.07,4890.77 1322.65,4888.07 1319.78,4883.94C1318.25,4881.74 1316.93,4879.19 1315.83,4876.29L1314.23,4872.04L1302.43,4872.04L1299.78,4878.34C1299.62,4878.77 1299.53,4879.12 1299.53,4879.39C1299.53,4879.65 1299.59,4879.94 1299.71,4880.26C1299.83,4880.58 1300.08,4880.86 1300.46,4881.11C1300.84,4881.36 1301.27,4881.49 1301.73,4881.49L1302.13,4881.49L1302.13,4881.99L1291.43,4881.99L1291.43,4881.49L1291.88,4881.49C1292.65,4881.49 1293.41,4881.26 1294.16,4880.81C1294.91,4880.36 1295.53,4879.69 1296.03,4878.79L1307.18,4853.34C1305.88,4850.4 1304.5,4848.39 1303.03,4847.29C1301.8,4846.35 1300.63,4845.89 1299.51,4845.89C1298.39,4845.89 1297.35,4846.05 1296.38,4846.39L1296.28,4845.89C1298.68,4844.65 1300.98,4844.04 1303.18,4844.04C1305.92,4844.04 1308.37,4845.1 1310.53,4847.24C1312.67,4849.34 1314.55,4852.37 1316.18,4856.34L1323.43,4874.24C1326.17,4881 1328.97,4885.65 1331.83,4888.19C1333,4889.22 1334.2,4889.94 1335.43,4890.34C1336.67,4890.74 1337.71,4890.94 1338.56,4890.94C1339.41,4890.94 1340.23,4890.84 1341.03,4890.64L1341.08,4891.14ZM1303.28,4869.89L1313.48,4869.89L1309.98,4860.64C1309.82,4860.17 1309.58,4859.53 1309.28,4858.71C1308.98,4857.89 1308.78,4857.32 1308.68,4856.99L1303.28,4869.89Z" style="fill:url(#_Linear6);fill-rule:nonzero;"/>
                </g>
                <g transform="matrix(8.24741,0,0,8.33148,-9151.41,-40166.4)">
                    <path d="M1338.38,4846.94L1341.48,4846.94C1342.98,4846.94 1345.77,4846.95 1349.83,4846.99C1355.73,4847.05 1360.4,4848.64 1363.83,4851.76C1367.27,4854.88 1368.98,4859.13 1368.98,4864.51C1368.98,4869.89 1367.27,4874.15 1363.83,4877.29C1360.4,4880.42 1355.73,4881.99 1349.83,4881.99L1331.68,4881.99L1331.68,4881.49L1332.33,4881.49C1333.17,4881.49 1333.89,4881.19 1334.51,4880.61C1335.13,4880.03 1335.47,4879.32 1335.53,4878.49L1335.53,4849.24C1331.8,4849.5 1329.03,4850.37 1327.23,4851.84C1326.33,4852.54 1325.63,4853.25 1325.11,4853.99C1324.59,4854.72 1324.08,4855.6 1323.58,4856.64L1323.08,4856.44C1323.88,4853.1 1325.56,4850.69 1328.11,4849.21C1330.66,4847.73 1334.08,4846.97 1338.38,4846.94ZM1349.23,4879.89C1352.8,4879.89 1355.63,4878.5 1357.71,4875.74C1359.79,4872.97 1360.83,4869.22 1360.83,4864.49C1360.83,4859.75 1359.79,4856.02 1357.71,4853.29C1355.63,4850.55 1352.83,4849.19 1349.33,4849.19L1343.03,4849.19L1343.03,4879.89L1349.23,4879.89Z" style="fill:url(#_Linear7);fill-rule:nonzero;"/>
                </g>
                <g transform="matrix(8.24741,0,0,8.33148,-9151.41,-40166.4)">
                    <path d="M1391.33,4881.49L1391.98,4881.49L1391.98,4881.99L1376.78,4881.99L1376.78,4881.49L1377.43,4881.49C1378.3,4881.49 1379.04,4881.18 1379.66,4880.56C1380.28,4879.94 1380.6,4879.2 1380.63,4878.34L1380.63,4849.04L1375.88,4849.24C1372.75,4849.37 1371.18,4850.54 1371.18,4852.74C1371.18,4853.64 1371.49,4854.39 1372.11,4855.01C1372.73,4855.63 1373.58,4855.94 1374.68,4855.94L1374.98,4855.94L1374.98,4856.24C1374.32,4856.47 1373.75,4856.59 1373.28,4856.59C1371.78,4856.59 1370.63,4856.05 1369.83,4854.99C1369.27,4854.25 1368.98,4853.42 1368.98,4852.49C1368.98,4851.02 1369.56,4849.81 1370.71,4848.86C1371.86,4847.91 1373.63,4847.35 1376.03,4847.19C1376.47,4847.15 1377.87,4847.09 1380.23,4846.99C1385.63,4846.79 1389.55,4846.45 1391.98,4845.99L1392.08,4846.49C1390.65,4846.72 1389.64,4847.2 1389.06,4847.94C1388.48,4848.67 1388.17,4849.75 1388.13,4851.19L1388.13,4878.34C1388.17,4879.2 1388.49,4879.94 1389.11,4880.56C1389.73,4881.18 1390.47,4881.49 1391.33,4881.49Z" style="fill:url(#_Linear8);fill-rule:nonzero;"/>
                </g>
            </g>
        </g>
        <g transform="matrix(1,0,0,1,3252.2,-242.47)">
            <g transform="matrix(0.251523,0,0,0.251523,-1799.89,289.28)">
                <text x="485.253px" y="1345.37px" style="font-family:'Montserrat-SemiBold', 'Montserrat';font-weight:600;font-size:135.165px;fill:rgb(65,65,65);">L<tspan x="572.975px 670.293px 778.29px 883.853px 1000.1px 1049.97px 1166.21px 1277.32px 1321.38px 1425.19px 1522.51px 1638.75px 1726.88px 1824.19px " y="1345.37px 1345.37px 1345.37px 1345.37px 1345.37px 1345.37px 1345.37px 1345.37px 1345.37px 1345.37px 1345.37px 1345.37px 1345.37px 1345.37px ">EARNING CENTER</tspan></text>
            </g>
        </g>
    </g>
    <defs>
        <linearGradient id="_Linear1" x1="0" y1="0" x2="1" y2="0" gradientUnits="userSpaceOnUse" gradientTransform="matrix(1.73198e-15,-28,28.2854,1.71451e-15,1312.92,4872.04)"><stop offset="0" style="stop-color:rgb(29,148,142);stop-opacity:1"/><stop offset="0.5" style="stop-color:rgb(12,175,161);stop-opacity:1"/><stop offset="1" style="stop-color:rgb(0,193,173);stop-opacity:1"/></linearGradient>
        <linearGradient id="_Linear2" x1="0" y1="0" x2="1" y2="0" gradientUnits="userSpaceOnUse" gradientTransform="matrix(1.73198e-15,-28,28.2854,1.71451e-15,1312.92,4872.04)"><stop offset="0" style="stop-color:rgb(29,148,142);stop-opacity:1"/><stop offset="0.5" style="stop-color:rgb(12,175,161);stop-opacity:1"/><stop offset="1" style="stop-color:rgb(0,193,173);stop-opacity:1"/></linearGradient>
        <linearGradient id="_Linear3" x1="0" y1="0" x2="1" y2="0" gradientUnits="userSpaceOnUse" gradientTransform="matrix(1.73198e-15,-28,28.2854,1.71451e-15,1312.92,4872.04)"><stop offset="0" style="stop-color:rgb(29,148,142);stop-opacity:1"/><stop offset="0.5" style="stop-color:rgb(12,175,161);stop-opacity:1"/><stop offset="1" style="stop-color:rgb(0,193,173);stop-opacity:1"/></linearGradient>
        <linearGradient id="_Linear4" x1="0" y1="0" x2="1" y2="0" gradientUnits="userSpaceOnUse" gradientTransform="matrix(1.73198e-15,-28,28.2854,1.71451e-15,1312.92,4872.04)"><stop offset="0" style="stop-color:rgb(29,148,142);stop-opacity:1"/><stop offset="0.5" style="stop-color:rgb(12,175,161);stop-opacity:1"/><stop offset="1" style="stop-color:rgb(0,193,173);stop-opacity:1"/></linearGradient>
        <linearGradient id="_Linear5" x1="0" y1="0" x2="1" y2="0" gradientUnits="userSpaceOnUse" gradientTransform="matrix(1.73198e-15,-28,28.2854,1.71451e-15,1312.92,4872.04)"><stop offset="0" style="stop-color:rgb(29,148,142);stop-opacity:1"/><stop offset="0.5" style="stop-color:rgb(12,175,161);stop-opacity:1"/><stop offset="1" style="stop-color:rgb(0,193,173);stop-opacity:1"/></linearGradient>
        <linearGradient id="_Linear6" x1="0" y1="0" x2="1" y2="0" gradientUnits="userSpaceOnUse" gradientTransform="matrix(1.73198e-15,-28,28.2854,1.71451e-15,1312.92,4872.04)"><stop offset="0" style="stop-color:rgb(29,148,142);stop-opacity:1"/><stop offset="0.5" style="stop-color:rgb(12,175,161);stop-opacity:1"/><stop offset="1" style="stop-color:rgb(0,193,173);stop-opacity:1"/></linearGradient>
        <linearGradient id="_Linear7" x1="0" y1="0" x2="1" y2="0" gradientUnits="userSpaceOnUse" gradientTransform="matrix(1.73198e-15,-28,28.2854,1.71451e-15,1312.92,4872.04)"><stop offset="0" style="stop-color:rgb(29,148,142);stop-opacity:1"/><stop offset="0.5" style="stop-color:rgb(12,175,161);stop-opacity:1"/><stop offset="1" style="stop-color:rgb(0,193,173);stop-opacity:1"/></linearGradient>
        <linearGradient id="_Linear8" x1="0" y1="0" x2="1" y2="0" gradientUnits="userSpaceOnUse" gradientTransform="matrix(1.73198e-15,-28,28.2854,1.71451e-15,1312.92,4872.04)"><stop offset="0" style="stop-color:rgb(29,148,142);stop-opacity:1"/><stop offset="0.5" style="stop-color:rgb(12,175,161);stop-opacity:1"/><stop offset="1" style="stop-color:rgb(0,193,173);stop-opacity:1"/></linearGradient>
    </defs>
</svg>
