<?xml version="1.0" encoding="UTF-8" standalone="no"?><!DOCTYPE svg PUBLIC "-//W3C//DTD SVG 1.1//EN" "http://www.w3.org/Graphics/SVG/1.1/DTD/svg11.dtd"><svg width="100%" height="100%" viewBox="0 0 300 300" version="1.1" xmlns="http://www.w3.org/2000/svg" xmlns:xlink="http://www.w3.org/1999/xlink" xml:space="preserve" xmlns:serif="http://www.serif.com/" style="fill-rule:evenodd;clip-rule:evenodd;stroke-miterlimit:10;"><circle cx="150" cy="150" r="150" style="fill:#e2fffe;"/><path id="Path_713" d="M59.106,96.68l80.8,67.257c2.799,2.345 7.069,2.345 9.868,0l80.8,-67.257" style="fill:none;fill-rule:nonzero;stroke:#1d948e;stroke-width:8.75px;"/><path id="Path_714" d="M177.979,208.659l-113.064,0c-3.219,0 -5.809,-2.415 -5.809,-5.424l0,-101.131c0,-3.009 2.59,-5.424 5.809,-5.424l159.885,0c3.219,0 5.809,2.45 5.809,5.424l0,55.779" style="fill:none;fill-rule:nonzero;stroke:#1d948e;stroke-width:8.75px;"/><path id="Line_720" d="M122.514,151.515l-61.063,57.144" style="fill:none;fill-rule:nonzero;stroke:#1d948e;stroke-width:8.75px;"/><path id="Line_721" d="M168.215,151.445l20.646,18.931" style="fill:none;fill-rule:nonzero;stroke:#1d948e;stroke-width:8.75px;"/><g id="Checkmark"><path id="Path_1404" d="M263.852,173.735l-37.513,38.178c-0.385,0.42 -1.015,0.42 -1.435,0.035l-0.035,0l-11.688,-12.073" style="fill:none;fill-rule:nonzero;stroke:#1d948e;stroke-width:8.75px;stroke-linecap:round;"/><circle id="Ellipse_265" cx="225.814" cy="204.145" r="32.509" style="fill:none;stroke:#1d948e;stroke-width:8.75px;"/></g></svg>