<?xml version="1.0" encoding="UTF-8" standalone="no"?><!DOCTYPE svg PUBLIC "-//W3C//DTD SVG 1.1//EN" "http://www.w3.org/Graphics/SVG/1.1/DTD/svg11.dtd"><svg width="100%" height="100%" viewBox="0 0 1669 1051" version="1.1" xmlns="http://www.w3.org/2000/svg" xmlns:xlink="http://www.w3.org/1999/xlink" xml:space="preserve" xmlns:serif="http://www.serif.com/" style="fill-rule:evenodd;clip-rule:evenodd;stroke-linejoin:round;stroke-miterlimit:2;"><g><path d="M1116.233,1012.092c-2.246,-7.35 -7.396,-14.225 -14.713,-16.583c-7.313,-2.354 -16.592,1.213 -18.871,8.55c-6.729,-5.617 -17.042,-1.154 -22.446,5.746c-8.746,11.158 -1.988,29.433 -0.529,30.621c1.579,1.279 5.85,1.054 5.85,1.054l65.437,-0.363c0,0 12.004,-0.875 17.546,-3.083c11.146,-4.446 18.729,-23.629 11.554,-33.254c-4.888,-6.558 -14.542,-7.95 -22.333,-5.458c-7.796,2.488 -15.358,7.362 -21.496,12.771Z" style="fill:#22c4ba;fill-rule:nonzero;"/><path d="M1075.462,1003.671c-0.396,0 -0.808,0.021 -1.225,0.067c-4.329,0.458 -9.175,3.367 -12.333,7.4c-7.675,9.792 -1.942,26.137 -0.688,27.783c0.292,0.212 2.45,0.5 4.192,0.4l65.542,-0.367c-0.029,-0.004 11.592,-0.871 16.754,-2.933c5.2,-2.067 10.046,-8.258 12.062,-15.396c1.646,-5.817 1.121,-11.121 -1.433,-14.554c-4.575,-6.142 -13.554,-6.738 -19.95,-4.692c-6.8,2.175 -14.163,6.554 -20.721,12.333c-0.55,0.488 -1.308,0.658 -2.017,0.458c-0.708,-0.204 -1.263,-0.746 -1.479,-1.446c-2.308,-7.554 -7.283,-13.217 -13.304,-15.158c-3.4,-1.096 -7.412,-0.721 -10.717,1c-2.713,1.408 -4.642,3.587 -5.429,6.133c-0.217,0.687 -0.758,1.225 -1.454,1.433c-0.688,0.2 -1.438,0.05 -1.996,-0.417c-1.629,-1.358 -3.575,-2.046 -5.804,-2.046Zm-10.871,39.992c-1.658,0 -4.617,-0.212 -6.279,-1.562c-2.567,-2.088 -9.087,-21.792 0.188,-33.629c3.908,-4.983 9.762,-8.446 15.287,-9.029c2.883,-0.329 5.571,0.179 7.913,1.4c1.404,-2.525 3.629,-4.642 6.454,-6.112c4.304,-2.238 9.55,-2.721 14.033,-1.275c6.504,2.096 11.963,7.587 15.025,14.983c6.371,-5.167 13.333,-9.092 19.854,-11.175c7.817,-2.5 18.883,-1.608 24.729,6.229c3.363,4.513 4.146,11.188 2.133,18.304c-2.404,8.5 -8.142,15.658 -14.621,18.242c-5.783,2.308 -17.683,3.196 -18.192,3.233l-65.579,0.367c-0.217,0.012 -0.542,0.025 -0.946,0.025Z" style="fill:#009e93;fill-rule:nonzero;"/><path d="M1047.417,1009.613c-1.871,3.646 -2.675,7.6 -2.229,11.683c0.221,2.05 3.467,2.071 3.238,0c-0.383,-3.525 0.167,-6.887 1.792,-10.05c0.95,-1.85 -1.846,-3.492 -2.8,-1.633Z" style="fill:#009e93;fill-rule:nonzero;"/><path d="M1037.962,1012.208c-1.021,3.667 -1.096,7.329 -0.279,11.042c0.446,2.037 3.571,1.175 3.125,-0.863c-0.692,-3.146 -0.583,-6.217 0.279,-9.317c0.558,-2.013 -2.567,-2.871 -3.125,-0.863Z" style="fill:#009e93;fill-rule:nonzero;"/><path d="M1056.142,1005.633c2.083,0 2.088,-3.242 0,-3.242c-2.088,0 -2.092,3.242 0,3.242Z" style="fill:#009e93;fill-rule:nonzero;"/><path d="M1065.321,1021.3l0,2.879c0,2.083 3.242,2.087 3.242,0l0,-2.879c0,-2.087 -3.242,-2.092 -3.242,0Z" style="fill:#009e93;fill-rule:nonzero;"/><path d="M1120.058,1026.337l0,1.442c0,2.087 3.242,2.092 3.242,0l0,-1.442c0,-2.083 -3.242,-2.087 -3.242,0Z" style="fill:#009e93;fill-rule:nonzero;"/><path d="M1114.05,1022.446c0.242,0.237 0.479,0.479 0.721,0.717c1.475,1.479 3.767,-0.813 2.292,-2.292c-0.242,-0.238 -0.479,-0.479 -0.721,-0.717c-1.475,-1.479 -3.767,0.812 -2.292,2.292Z" style="fill:#009e93;fill-rule:nonzero;"/><path d="M193.142,951.008l-109.704,0c-2.388,0 -4.321,-1.933 -4.321,-4.321c0,-2.392 1.933,-4.321 4.321,-4.321l109.704,0c2.388,0 4.321,1.929 4.321,4.321c0,2.387 -1.933,4.321 -4.321,4.321Z" style="fill:#009e93;fill-rule:nonzero;"/><path d="M1159.154,570.538l-3.133,0c0,-2.592 -2.108,-4.7 -4.7,-4.7c-2.587,0 -4.696,2.108 -4.696,4.7l-3.133,0c0,-4.321 3.513,-7.833 7.829,-7.833c4.321,0 7.833,3.512 7.833,7.833Z" style="fill:#fff;fill-rule:nonzero;"/><path d="M1170.362,388.096l-3.133,0c0,-2.592 -2.108,-4.7 -4.7,-4.7c-2.592,0 -4.7,2.108 -4.7,4.7l-3.133,0c0,-4.321 3.512,-7.833 7.833,-7.833c4.317,0 7.833,3.513 7.833,7.833Z" style="fill:#fff;fill-rule:nonzero;"/><path d="M644.096,1013.425l124.588,0c-4.8,-18.137 -8.062,-44.354 -8.708,-59.404l-108.025,0.333c1.025,20.117 -0.208,38.417 -7.854,59.071Zm136.238,8.642l-149.104,0l2.529,-6c9.779,-23.196 10.787,-43.054 9.3,-65.737l-0.3,-4.592l125.713,-0.383l0.029,4.3c0.108,14.662 4.075,47.967 10.046,66.783l1.788,5.629Z" style="fill:#1d948e;fill-rule:nonzero;"/><path d="M378.404,520.458c-9.796,0 -17.95,7.662 -18.688,17.575c-5.479,73.958 -1.242,208.063 1.85,305.979c1.033,32.554 1.921,60.671 2.287,81.342c0.108,6.012 10.154,17.221 17.912,19.987c13.896,2.837 627.458,0.742 643.408,-2.258c19.55,-3.858 20.429,-23.133 21.279,-41.779c0.196,-4.317 0.388,-8.483 0.813,-12.262c10.375,-91.563 7.292,-188.679 4.313,-282.592c-0.712,-22.504 -1.417,-44.712 -1.921,-66.442c-0.233,-10.242 -8.292,-18.396 -18.342,-18.579l-652.6,-0.971l-0.312,0Zm209.954,433.479c-113.2,0 -204.9,-0.617 -208.925,-2.054c-9.687,-3.454 -22.354,-16.879 -22.525,-26.404c-0.367,-20.629 -1.254,-48.717 -2.279,-81.25c-3.1,-98.071 -7.346,-232.387 -1.837,-306.713c1,-13.542 12.188,-24.004 25.558,-24.004l0.433,0l652.629,0.971c13.804,0.237 24.871,11.379 25.192,25.358c0.5,21.712 1.208,43.9 1.917,66.392c2.992,94.158 6.079,191.521 -4.35,283.596c-0.412,3.633 -0.592,7.642 -0.779,11.792c-0.879,19.317 -1.971,43.362 -26.871,48.275c-12.175,2.4 -253.704,4.042 -438.162,4.042Z" style="fill:#1d948e;fill-rule:nonzero;"/><path d="M1013.154,536.95l-614.9,-0.808c-11.058,-0.167 -20.342,7.417 -21.171,17.325c-6.892,82.3 2.5,254.017 3.892,323.125c0.133,6.738 11.129,16.838 19.05,19.338c9.321,2.946 593.667,0.721 607.95,-1.771c25.646,-4.479 21.279,-30.746 23.433,-47.554c12.167,-95.054 4.692,-198.375 2.271,-291.346c-0.263,-10.067 -9.317,-18.142 -20.525,-18.308Z" style="fill:#c9d4d3;"/><path d="M577.825,1020.9c-6.721,0 -8.517,5.621 -8.517,8.946c0,3.321 1.796,8.929 8.517,8.929l255.85,0c6.725,0 8.521,-5.625 8.521,-8.95c0,-3.317 -1.796,-8.925 -8.521,-8.925l-255.85,0Zm255.85,24.825l-255.85,0c-10.154,0 -15.462,-7.987 -15.462,-15.879c0,-7.896 5.308,-15.896 15.462,-15.896l255.85,0c10.154,0 15.467,7.987 15.467,15.875c0,7.9 -5.313,15.9 -15.467,15.9Z" style="fill:#1d948e;fill-rule:nonzero;"/><path d="M399.646,920.8c-1.508,0 -1.508,0 0,0Z" style="fill:#1d948e;"/><path d="M399.646,929.729c11.492,0 11.513,-17.854 0,-17.854c-11.487,0 -11.508,17.854 0,17.854Z" style="fill:#1d948e;fill-rule:nonzero;"/><path d="M435.646,920.8c-1.512,0 -1.512,0 0,0Z" style="fill:#1d948e;"/><path d="M435.646,929.729c11.492,0 11.513,-17.854 0,-17.854c-11.487,0 -11.508,17.854 0,17.854Z" style="fill:#1d948e;fill-rule:nonzero;"/><path d="M471.646,920.8c-1.512,0 -1.512,0 0,0Z" style="fill:#1d948e;"/><path d="M471.646,929.729c11.492,0 11.508,-17.854 0,-17.854c-11.487,0 -11.508,17.854 0,17.854Z" style="fill:#1d948e;fill-rule:nonzero;"/><path d="M705.75,527.45c-0.708,0 -0.708,0 0,0Z" style="fill:#1d948e;"/><path d="M705.75,531.638c5.392,0 5.4,-8.375 0,-8.375c-5.387,0 -5.396,8.375 0,8.375Z" style="fill:#1d948e;fill-rule:nonzero;"/><path d="M1427.308,1028.754l-88.162,0l33.908,-111.367l20.346,0l33.908,111.367Z" style="fill:#c9d4d3;fill-rule:nonzero;"/><rect x="1331.863" y="1028.754" width="102.729" height="12.721" style="fill:#c9d4d3;fill-rule:nonzero;"/><path d="M1347.625,1000.913l-8.479,27.842l88.162,0l-8.479,-27.842l-71.204,0Z" style="fill:#1d948e;fill-rule:nonzero;"/><path d="M1356.1,973.071l54.254,0l-8.479,-27.842l-37.296,0l-8.479,27.842Z" style="fill:#1d948e;fill-rule:nonzero;"/><path d="M1463.662,910.85l21.517,0l-12.121,47.846l-21.517,0l12.121,-47.846Zm53.458,47.846l-21.521,0l12.121,-47.846l21.521,0l-12.121,47.846Zm44.058,0l-21.517,0l12.121,-47.846l21.517,0l-12.121,47.846Zm56.121,-47.846l0,0.254l-12.058,47.592l-21.517,0l12.121,-47.846l21.454,0Zm-153.942,129.908l19.563,0l0,-75.746l100.417,0l0,75.746l19.563,0l0,-75.746l20.717,0l0,-60.479l-16.525,0l0,-5.587l-28.504,0l0,5.587l-88.962,0l0,-5.587l-28.504,0l0,5.587l-18.142,0l0,60.479l20.379,0l0,75.746Z" style="fill:#009e93;fill-rule:nonzero;"/><path d="M466.746,284.254c-13.396,0 -24.25,-10.867 -24.25,-24.246c0,-13.392 10.854,-24.242 24.25,-24.242c13.387,0 24.246,10.85 24.246,24.242c0,13.379 -10.858,24.246 -24.246,24.246Zm34.429,16.05l5.862,-5.862c1.192,-1.183 1.192,-3.113 0,-4.304l-5.108,-5.096c-1.175,-1.192 -1.487,-3.35 -0.679,-4.817l4.158,-10.1c0.467,-1.617 2.233,-2.929 3.904,-2.929l7.225,0c1.679,0 3.042,-1.367 3.042,-3.029l0,-8.308c0,-1.683 -1.363,-3.033 -3.042,-3.033l-7.225,0c-1.671,0 -3.437,-1.313 -3.904,-2.921l-4.158,-10.096c-0.808,-1.471 -0.496,-3.638 0.679,-4.829l5.108,-5.096c1.192,-1.192 1.192,-3.121 0,-4.287l-5.862,-5.887c-1.188,-1.183 -3.117,-1.183 -4.296,0l-5.113,5.104c-1.188,1.187 -3.346,1.496 -4.808,0.704l-10.113,-4.167c-1.604,-0.479 -2.917,-2.225 -2.917,-3.908l0,-7.225c0,-1.667 -1.362,-3.046 -3.038,-3.046l-8.292,0c-1.683,0 -3.046,1.379 -3.046,3.046l0,7.225c0,1.683 -1.313,3.429 -2.917,3.908l-10.113,4.167c-1.462,0.792 -3.633,0.483 -4.808,-0.704l-5.117,-5.096c-1.175,-1.192 -3.104,-1.192 -4.279,0l-5.883,5.879c-1.188,1.167 -1.188,3.096 0,4.287l5.104,5.096c1.183,1.192 1.5,3.358 0.692,4.829l-4.158,10.096c-0.471,1.608 -2.238,2.921 -3.904,2.921l-7.233,0c-1.671,0 -3.038,1.35 -3.038,3.033l0,8.308c0,1.663 1.367,3.029 3.038,3.029l7.233,0c1.667,0 3.433,1.313 3.904,2.929l4.158,10.1c0.808,1.475 0.492,3.625 -0.692,4.817l-5.104,5.096c-1.188,1.192 -1.188,3.121 0,4.304l5.883,5.862c1.175,1.196 3.104,1.196 4.279,0l5.117,-5.1c1.175,-1.183 3.346,-1.492 4.817,-0.683l10.104,4.158c1.604,0.462 2.917,2.225 2.917,3.896l0,7.242c0,1.662 1.362,3.033 3.046,3.033l8.292,0c1.675,0 3.038,-1.371 3.038,-3.033l0,-7.242c0,-1.671 1.313,-3.433 2.917,-3.896l10.113,-4.158c1.462,-0.808 3.621,-0.5 4.808,0.683l5.113,5.1c1.179,1.196 3.108,1.196 4.296,0Z" style="fill:#c9d4d3;fill-rule:nonzero;"/><path d="M538.404,337.317c-3.912,7.321 -13.042,10.075 -20.337,6.154c-7.317,-3.921 -10.067,-13.033 -6.154,-20.333c3.921,-7.333 13.046,-10.079 20.35,-6.158c7.3,3.929 10.058,13.033 6.142,20.337Zm18.838,-14.1l-1.479,-4.921c-0.304,-1 -1.358,-1.562 -2.35,-1.267l-4.275,1.3c-0.996,0.304 -2.279,-0.167 -2.846,-1.046l-4.304,-5.221c-0.725,-0.721 -0.933,-2.071 -0.442,-2.987l2.108,-3.942c0.496,-0.925 0.146,-2.067 -0.754,-2.558l-4.538,-2.425c-0.912,-0.496 -2.054,-0.138 -2.546,0.775l-2.121,3.942c-0.488,0.908 -1.725,1.487 -2.733,1.279l-6.742,-0.679c-1.029,0.004 -2.133,-0.787 -2.425,-1.792l-1.3,-4.283c-0.296,-0.987 -1.346,-1.558 -2.342,-1.246l-4.925,1.471c-1.008,0.313 -1.554,1.358 -1.263,2.363l1.308,4.271c0.3,1.004 -0.175,2.267 -1.054,2.837l-5.229,4.313c-0.712,0.738 -2.071,0.925 -2.979,0.442l-3.95,-2.117c-0.904,-0.492 -2.058,-0.154 -2.542,0.771l-2.438,4.521c-0.479,0.925 -0.146,2.071 0.771,2.554l3.946,2.129c0.921,0.488 1.492,1.712 1.279,2.725l-0.671,6.733c0,1.042 -0.796,2.146 -1.796,2.429l-4.283,1.304c-1,0.296 -1.567,1.358 -1.258,2.346l1.487,4.917c0.296,1.004 1.354,1.558 2.354,1.258l4.283,-1.292c0.987,-0.296 2.258,0.179 2.825,1.037l4.304,5.233c0.733,0.725 0.933,2.075 0.45,2.992l-2.117,3.942c-0.483,0.908 -0.142,2.05 0.775,2.554l4.525,2.421c0.913,0.487 2.058,0.142 2.55,-0.767l2.125,-3.95c0.479,-0.925 1.721,-1.487 2.729,-1.283l6.729,0.683c1.05,0 2.138,0.796 2.438,1.8l1.292,4.271c0.3,1 1.362,1.571 2.35,1.258l4.921,-1.488c0.992,-0.296 1.558,-1.358 1.271,-2.337l-1.3,-4.283c-0.304,-0.987 0.158,-2.279 1.025,-2.837l5.233,-4.304c0.721,-0.733 2.079,-0.938 2.992,-0.454l3.942,2.117c0.917,0.504 2.075,0.15 2.554,-0.767l2.429,-4.533c0.496,-0.9 0.137,-2.058 -0.779,-2.55l-3.946,-2.121c-0.917,-0.496 -1.492,-1.712 -1.271,-2.713l0.683,-6.758c-0.012,-1.025 0.8,-2.129 1.783,-2.425l4.287,-1.296c0.983,-0.3 1.55,-1.35 1.246,-2.346Z" style="fill:#c9d4d3;fill-rule:nonzero;"/><path d="M802.608,418.133l-135.833,0c-2.387,0 -4.321,-1.933 -4.321,-4.321c0,-2.387 1.933,-4.321 4.321,-4.321l135.833,0c2.383,0 4.321,1.933 4.321,4.321c0,2.387 -1.937,4.321 -4.321,4.321Z" style="fill:#009e93;fill-rule:nonzero;"/><path d="M526.075,479.838l-219.404,0c-2.387,0 -4.325,-1.933 -4.325,-4.321c0,-2.387 1.938,-4.321 4.325,-4.321l219.404,0c2.387,0 4.321,1.933 4.321,4.321c0,2.387 -1.933,4.321 -4.321,4.321Z" style="fill:#009e93;fill-rule:nonzero;"/><path d="M1578.062,596.667l-219.404,0c-2.387,0 -4.321,-1.933 -4.321,-4.321c0,-2.387 1.933,-4.321 4.321,-4.321l219.404,0c2.388,0 4.321,1.933 4.321,4.321c0,2.387 -1.933,4.321 -4.321,4.321Z" style="fill:#009e93;fill-rule:nonzero;"/><path d="M1664.317,1050.042l-1659.996,0c-2.383,0 -4.321,-1.929 -4.321,-4.321c0,-2.387 1.938,-4.321 4.321,-4.321l1659.996,0c2.387,0 4.321,1.933 4.321,4.321c0,2.392 -1.933,4.321 -4.321,4.321Z" style="fill:#009e93;fill-rule:nonzero;"/><path d="M1055.413,423.213c-13.504,0 -24.5,-10.988 -24.5,-24.5c0,-13.508 11,-24.504 24.508,-24.504c13.508,0 24.5,10.992 24.5,24.504c0,13.512 -10.996,24.5 -24.508,24.5Zm-0.004,-59.35c-9.304,0 -18.054,3.625 -24.633,10.204c-11.225,11.225 -13.454,28.613 -5.429,42.283l0.575,0.967l-35.283,35.283c-0.046,0.05 -1.712,1.663 -1.737,4.013c-0.017,1.771 0.879,3.575 2.663,5.358c1.896,1.892 3.883,2.854 5.9,2.854c2.421,0 4.138,-1.404 4.15,-1.413l35.196,-35.212l0.975,0.579c5.325,3.125 11.425,4.775 17.638,4.775c9.308,0 18.054,-3.621 24.637,-10.196c13.583,-13.592 13.583,-35.7 0,-49.292c-6.583,-6.579 -15.337,-10.204 -24.65,-10.204Z" style="fill:#c9d4d3;fill-rule:nonzero;"/><rect x="1042.496" y="397.35" width="25.238" height="6.458" style="fill:#c9d4d3;fill-rule:nonzero;"/><path d="M408.275,1042.038c-2.387,0 -4.325,-1.933 -4.325,-4.321l0,-332.8c0,-2.387 1.937,-4.325 4.325,-4.325c2.383,0 4.321,1.938 4.321,4.325l0,332.8c0,2.387 -1.937,4.321 -4.321,4.321Z" style="fill:#009e93;fill-rule:nonzero;"/><path d="M485.612,1042.038c-2.387,0 -4.321,-1.933 -4.321,-4.321l0,-332.8c0,-2.387 1.933,-4.325 4.321,-4.325c2.387,0 4.321,1.938 4.321,4.325l0,332.8c0,2.387 -1.933,4.321 -4.321,4.321Z" style="fill:#009e93;fill-rule:nonzero;"/><path d="M485.612,731.979l-77.338,0c-2.387,0 -4.325,-1.937 -4.325,-4.321c0,-2.387 1.937,-4.321 4.325,-4.321l77.338,0c2.387,0 4.321,1.933 4.321,4.321c0,2.383 -1.933,4.321 -4.321,4.321Z" style="fill:#009e93;fill-rule:nonzero;"/><path d="M485.612,770l-77.338,0c-2.387,0 -4.325,-1.933 -4.325,-4.321c0,-2.387 1.937,-4.321 4.325,-4.321l77.338,0c2.387,0 4.321,1.933 4.321,4.321c0,2.387 -1.933,4.321 -4.321,4.321Z" style="fill:#009e93;fill-rule:nonzero;"/><path d="M485.612,808.021l-77.338,0c-2.387,0 -4.325,-1.933 -4.325,-4.321c0,-2.387 1.937,-4.321 4.325,-4.321l77.338,0c2.387,0 4.321,1.933 4.321,4.321c0,2.387 -1.933,4.321 -4.321,4.321Z" style="fill:#009e93;fill-rule:nonzero;"/><path d="M485.612,846.042l-77.338,0c-2.387,0 -4.325,-1.933 -4.325,-4.321c0,-2.387 1.937,-4.321 4.325,-4.321l77.338,0c2.387,0 4.321,1.933 4.321,4.321c0,2.387 -1.933,4.321 -4.321,4.321Z" style="fill:#009e93;fill-rule:nonzero;"/><path d="M485.612,884.063l-77.338,0c-2.387,0 -4.325,-1.933 -4.325,-4.321c0,-2.387 1.937,-4.321 4.325,-4.321l77.338,0c2.387,0 4.321,1.933 4.321,4.321c0,2.387 -1.933,4.321 -4.321,4.321Z" style="fill:#009e93;fill-rule:nonzero;"/><path d="M485.612,922.083l-77.338,0c-2.387,0 -4.325,-1.933 -4.325,-4.321c0,-2.387 1.937,-4.321 4.325,-4.321l77.338,0c2.387,0 4.321,1.933 4.321,4.321c0,2.387 -1.933,4.321 -4.321,4.321Z" style="fill:#009e93;fill-rule:nonzero;"/><path d="M485.612,960.104l-77.338,0c-2.387,0 -4.325,-1.933 -4.325,-4.321c0,-2.387 1.937,-4.321 4.325,-4.321l77.338,0c2.387,0 4.321,1.933 4.321,4.321c0,2.387 -1.933,4.321 -4.321,4.321Z" style="fill:#009e93;fill-rule:nonzero;"/><path d="M485.612,998.121l-77.338,0c-2.387,0 -4.325,-1.933 -4.325,-4.321c0,-2.387 1.937,-4.321 4.325,-4.321l77.338,0c2.387,0 4.321,1.933 4.321,4.321c0,2.387 -1.933,4.321 -4.321,4.321Z" style="fill:#009e93;fill-rule:nonzero;"/><path d="M302.942,721.058c-2.383,0 -4.321,-1.937 -4.321,-4.321l0,-16.825c0,-2.387 1.938,-4.317 4.321,-4.317c2.387,0 4.321,1.929 4.321,4.317l0,16.825c0,2.383 -1.933,4.321 -4.321,4.321Z" style="fill:#009e93;fill-rule:nonzero;"/><path d="M311.354,712.646l-16.821,0c-2.387,0 -4.321,-1.937 -4.321,-4.317c0,-2.387 1.933,-4.325 4.321,-4.325l16.821,0c2.387,0 4.321,1.938 4.321,4.325c0,2.379 -1.933,4.317 -4.321,4.317Z" style="fill:#009e93;fill-rule:nonzero;"/><path d="M691.554,119.242c-2.387,0 -4.321,-1.937 -4.321,-4.325l0,-16.821c0,-2.387 1.933,-4.325 4.321,-4.325c2.388,0 4.321,1.937 4.321,4.325l0,16.821c0,2.387 -1.933,4.325 -4.321,4.325Z" style="fill:#009e93;fill-rule:nonzero;"/><path d="M699.967,110.829l-16.821,0c-2.387,0 -4.321,-1.937 -4.321,-4.325c0,-2.383 1.933,-4.321 4.321,-4.321l16.821,0c2.387,0 4.321,1.937 4.321,4.321c0,2.387 -1.933,4.325 -4.321,4.325Z" style="fill:#009e93;fill-rule:nonzero;"/><path d="M827.779,990.346c-0.392,0 -0.792,-0.054 -1.187,-0.167l-16.179,-4.617c-2.296,-0.658 -3.625,-3.046 -2.967,-5.342c0.654,-2.296 3.05,-3.6 5.337,-2.971l16.179,4.617c2.296,0.658 3.625,3.046 2.967,5.342c-0.537,1.9 -2.271,3.137 -4.15,3.137Z" style="fill:#009e93;fill-rule:nonzero;"/><path d="M817.379,996.125c-0.392,0 -0.792,-0.054 -1.188,-0.163c-2.296,-0.658 -3.625,-3.046 -2.971,-5.342l4.621,-16.179c0.658,-2.296 3.05,-3.6 5.342,-2.971c2.296,0.658 3.625,3.046 2.967,5.342l-4.621,16.179c-0.542,1.9 -2.271,3.133 -4.15,3.133Z" style="fill:#009e93;fill-rule:nonzero;"/><path d="M742.779,482.15c-0.392,0 -0.787,-0.054 -1.188,-0.167l-16.175,-4.621c-2.296,-0.654 -3.625,-3.05 -2.971,-5.342c0.658,-2.296 3.042,-3.625 5.342,-2.967l16.179,4.621c2.292,0.65 3.621,3.046 2.967,5.338c-0.542,1.9 -2.271,3.137 -4.154,3.137Z" style="fill:#009e93;fill-rule:nonzero;"/><path d="M732.383,487.929c-0.392,0 -0.792,-0.054 -1.188,-0.171c-2.296,-0.654 -3.625,-3.046 -2.971,-5.342l4.621,-16.175c0.654,-2.296 3.042,-3.625 5.342,-2.967c2.292,0.654 3.625,3.046 2.967,5.338l-4.617,16.179c-0.546,1.896 -2.275,3.137 -4.154,3.137Z" style="fill:#009e93;fill-rule:nonzero;"/><path d="M791.475,322.9c0,33.154 -26.875,60.029 -60.029,60.029c-33.154,0 -60.029,-26.875 -60.029,-60.029c0,-33.154 26.875,-60.029 60.029,-60.029c33.154,0 60.029,26.875 60.029,60.029Z" style="fill:#c9d4d3;fill-rule:nonzero;"/><path d="M776.417,322.9c0,24.833 -20.133,44.967 -44.971,44.967c-24.833,0 -44.967,-20.133 -44.967,-44.967c0,-24.837 20.133,-44.971 44.967,-44.971c24.837,0 44.971,20.133 44.971,44.971Z" style="fill:#fff;fill-rule:nonzero;"/><path d="M731.446,279.671c-23.837,0 -43.229,19.392 -43.229,43.229c0,23.838 19.392,43.229 43.229,43.229c23.838,0 43.229,-19.392 43.229,-43.229c0,-23.838 -19.392,-43.229 -43.229,-43.229Zm0,89.937c-25.754,0 -46.708,-20.954 -46.708,-46.708c0,-25.754 20.954,-46.708 46.708,-46.708c25.754,0 46.708,20.954 46.708,46.708c0,25.754 -20.954,46.708 -46.708,46.708Z" style="fill:#009e93;fill-rule:nonzero;"/><path d="M731.446,324.637c-0.958,0 -1.737,-0.779 -1.737,-1.737l0,-22.896c0,-0.963 0.779,-1.742 1.737,-1.742c0.963,0 1.742,0.779 1.742,1.742l0,22.896c0,0.958 -0.779,1.737 -1.742,1.737Z" style="fill:#009e93;fill-rule:nonzero;"/><path d="M758.271,324.637l-26.825,0c-0.958,0 -1.737,-0.779 -1.737,-1.737c0,-0.962 0.779,-1.742 1.737,-1.742l26.825,0c0.963,0 1.742,0.779 1.742,1.742c0,0.958 -0.779,1.737 -1.742,1.737Z" style="fill:#009e93;fill-rule:nonzero;"/><path d="M733.221,283.008c0,0.979 -0.792,1.775 -1.775,1.775c-0.979,0 -1.775,-0.796 -1.775,-1.775c0,-0.979 0.796,-1.775 1.775,-1.775c0.983,0 1.775,0.796 1.775,1.775Z" style="fill:#009e93;fill-rule:nonzero;"/><path d="M760.908,295.946c-0.692,0.696 -1.817,0.696 -2.508,0c-0.696,-0.692 -0.696,-1.817 0,-2.508c0.692,-0.696 1.817,-0.696 2.508,0c0.696,0.692 0.696,1.817 0,2.508Z" style="fill:#009e93;fill-rule:nonzero;"/><path d="M771.338,324.675c-0.979,0 -1.775,-0.796 -1.775,-1.775c0,-0.983 0.796,-1.775 1.775,-1.775c0.983,0 1.775,0.792 1.775,1.775c0,0.979 -0.792,1.775 -1.775,1.775Z" style="fill:#009e93;fill-rule:nonzero;"/><path d="M758.4,352.363c-0.696,-0.692 -0.696,-1.817 0,-2.513c0.692,-0.692 1.817,-0.692 2.508,0c0.696,0.696 0.696,1.821 0,2.513c-0.692,0.692 -1.817,0.692 -2.508,0Z" style="fill:#009e93;fill-rule:nonzero;"/><path d="M729.671,362.792c0,-0.983 0.796,-1.775 1.775,-1.775c0.983,0 1.775,0.792 1.775,1.775c0,0.979 -0.792,1.775 -1.775,1.775c-0.979,0 -1.775,-0.796 -1.775,-1.775Z" style="fill:#009e93;fill-rule:nonzero;"/><path d="M701.983,349.85c0.696,-0.692 1.817,-0.692 2.512,0c0.692,0.696 0.692,1.821 0,2.513c-0.696,0.692 -1.817,0.692 -2.512,0c-0.692,-0.692 -0.692,-1.817 0,-2.513Z" style="fill:#009e93;fill-rule:nonzero;"/><path d="M691.554,321.125c0.983,0 1.775,0.792 1.775,1.775c0,0.979 -0.792,1.775 -1.775,1.775c-0.979,0 -1.775,-0.796 -1.775,-1.775c0,-0.983 0.796,-1.775 1.775,-1.775Z" style="fill:#009e93;fill-rule:nonzero;"/><path d="M704.496,293.438c0.692,0.692 0.692,1.817 0,2.508c-0.696,0.696 -1.817,0.696 -2.512,0c-0.692,-0.692 -0.692,-1.817 0,-2.508c0.696,-0.696 1.817,-0.696 2.512,0Z" style="fill:#009e93;fill-rule:nonzero;"/><path d="M819.258,299.975l-25.204,0c-0.963,0 -1.742,-0.779 -1.742,-1.737c0,-0.962 0.779,-1.742 1.742,-1.742l25.204,0c0.963,0 1.742,0.779 1.742,1.742c0,0.958 -0.779,1.737 -1.742,1.737Z" style="fill:#009e93;fill-rule:nonzero;"/><path d="M819.258,349.304l-25.204,0c-0.963,0 -1.742,-0.779 -1.742,-1.742c0,-0.963 0.779,-1.737 1.742,-1.737l25.204,0c0.963,0 1.742,0.775 1.742,1.737c0,0.962 -0.779,1.742 -1.742,1.742Z" style="fill:#009e93;fill-rule:nonzero;"/><path d="M850.592,324.646l-47.079,0c-0.963,0 -1.742,-0.775 -1.742,-1.737c0,-0.963 0.779,-1.742 1.742,-1.742l47.079,0c0.963,0 1.742,0.779 1.742,1.742c0,0.962 -0.779,1.737 -1.742,1.737Z" style="fill:#009e93;fill-rule:nonzero;"/><rect x="904.9" y="973.071" width="27.842" height="27.842" style="fill:#fff;fill-rule:nonzero;"/><path d="M907.058,998.75l23.521,0l0,-23.521l-23.521,0l0,23.521Zm27.842,4.321l-32.162,0l0,-32.162l32.162,0l0,32.162Z" style="fill:#1d948e;fill-rule:nonzero;"/><path d="M967.979,979.192l-25.204,0c-0.962,0 -1.742,-0.779 -1.742,-1.742c0,-0.962 0.779,-1.737 1.742,-1.737l25.204,0c0.962,0 1.737,0.775 1.737,1.737c0,0.963 -0.775,1.742 -1.737,1.742Z" style="fill:#009e93;fill-rule:nonzero;"/><path d="M977.45,998.271l-34.063,0c-1.3,0 -2.354,-0.779 -2.354,-1.742c0,-0.963 1.054,-1.738 2.354,-1.738l34.063,0c1.3,0 2.35,0.775 2.35,1.738c0,0.963 -1.05,1.742 -2.35,1.742Z" style="fill:#009e93;fill-rule:nonzero;"/><path d="M989.854,988.192l-47.079,0c-0.962,0 -1.742,-0.775 -1.742,-1.737c0,-0.963 0.779,-1.742 1.742,-1.742l47.079,0c0.962,0 1.742,0.779 1.742,1.742c0,0.962 -0.779,1.737 -1.742,1.737Z" style="fill:#009e93;fill-rule:nonzero;"/><rect x="293.55" y="564.504" width="27.842" height="27.842" style="fill:#fff;fill-rule:nonzero;"/><path d="M295.708,590.187l23.521,0l0,-23.521l-23.521,0l0,23.521Zm27.842,4.321l-32.163,0l0,-32.162l32.163,0l0,32.162Z" style="fill:#1d948e;fill-rule:nonzero;"/><path d="M258.313,570.625l25.204,0c0.958,0 1.737,-0.779 1.737,-1.738c0,-0.962 -0.779,-1.742 -1.737,-1.742l-25.204,0c-0.963,0 -1.742,0.779 -1.742,1.742c0,0.958 0.779,1.738 1.742,1.738Z" style="fill:#009e93;fill-rule:nonzero;"/><path d="M248.842,589.704l34.063,0c1.3,0 2.35,-0.775 2.35,-1.737c0,-0.962 -1.05,-1.742 -2.35,-1.742l-34.063,0c-1.3,0 -2.35,0.779 -2.35,1.742c0,0.963 1.05,1.737 2.35,1.737Z" style="fill:#009e93;fill-rule:nonzero;"/><path d="M236.438,579.629l47.079,0c0.963,0 1.737,-0.779 1.737,-1.737c0,-0.962 -0.775,-1.742 -1.737,-1.742l-47.079,0c-0.963,0 -1.742,0.779 -1.742,1.742c0,0.958 0.779,1.737 1.742,1.737Z" style="fill:#009e93;fill-rule:nonzero;"/><rect x="1142.679" y="669.125" width="8.642" height="371.633" style="fill:#009e93;fill-rule:nonzero;"/><path d="M1147.95,714.092l-1.9,0c-14.1,0 -25.638,-11.537 -25.638,-25.637l0,-34.337c0,-14.1 11.538,-25.638 25.638,-25.638l1.9,0c14.104,0 25.642,11.538 25.642,25.638l0,34.337c0,14.1 -11.537,25.637 -25.642,25.637Z" style="fill:#c9d4d3;fill-rule:nonzero;"/><path d="M1181.804,689.225c3.038,0.488 6.079,0.975 9.117,1.467c2.042,0.325 2.921,-2.796 0.862,-3.125c-3.037,-0.492 -6.079,-0.979 -9.121,-1.467c-2.037,-0.329 -2.917,2.796 -0.858,3.125Z" style="fill:#009e93;fill-rule:nonzero;"/><path d="M1181.488,669.421c2.383,-0.425 4.758,-0.479 7.162,-0.25c2.075,0.196 2.062,-3.046 0,-3.242c-2.708,-0.254 -5.35,-0.108 -8.021,0.367c-2.054,0.362 -1.183,3.483 0.858,3.125Z" style="fill:#009e93;fill-rule:nonzero;"/><path d="M1180.5,651.379c2.329,-0.925 4.662,-1.85 6.992,-2.775c1.917,-0.758 1.079,-3.896 -0.863,-3.125c-2.329,0.925 -4.662,1.85 -6.992,2.775c-1.917,0.758 -1.079,3.896 0.863,3.125Z" style="fill:#009e93;fill-rule:nonzero;"/><path d="M1101.037,692.242c2.392,-0.329 4.708,-0.883 6.992,-1.667c1.963,-0.675 1.121,-3.804 -0.863,-3.125c-2.283,0.783 -4.6,1.337 -6.992,1.667c-2.058,0.283 -1.183,3.408 0.863,3.125Z" style="fill:#009e93;fill-rule:nonzero;"/><path d="M1096.829,669.204c3.004,0.083 5.904,0.529 8.796,1.346c2.008,0.567 2.867,-2.563 0.858,-3.125c-3.158,-0.892 -6.375,-1.371 -9.654,-1.462c-2.083,-0.058 -2.083,3.183 0,3.242Z" style="fill:#009e93;fill-rule:nonzero;"/><path d="M1099.658,642.542c2.333,0.746 4.667,1.492 7,2.233c1.992,0.637 2.846,-2.492 0.863,-3.125c-2.333,-0.742 -4.667,-1.487 -7,-2.233c-1.992,-0.633 -2.846,2.496 -0.863,3.125Z" style="fill:#009e93;fill-rule:nonzero;"/><path d="M1126.838,1045.796l5.758,-49.671l28.087,0l6.483,48.954l-40.329,0.717Z" style="fill:#009e93;fill-rule:nonzero;"/><path d="M333.771,807.983c-1.275,-7.896 -6.875,-28.275 -19.179,-21.825c-19.917,10.442 4.108,50.083 -19.892,57.071c-1.283,-15.8 -4.679,-26.687 -11.812,-26.037c-14.712,1.333 -10.804,35.563 -11.042,43.262c-0.242,7.675 -0.625,15.538 -0.971,23.479c-17.313,3.104 -13.892,-42.05 -24.421,-48.296c-16.371,-9.708 -19.85,11.929 -19.4,21.929c0.767,17.008 5.342,37.362 21.317,46.396c5.275,2.979 14.558,6.342 21.792,5.733c-0.079,13.604 0.504,27.121 2.75,40.025c0.025,0.138 0.254,0.138 0.279,0c0.004,-0.008 0.004,-0.021 0.004,-0.029l9.7,0.521c-0.004,0.058 -0.008,0.121 -0.008,0.179c-0.092,4.267 6.571,4.271 6.629,0c0.117,-8.208 5.162,-48.513 5.767,-82.663c7.746,1.154 17.483,-2.45 23.058,-6.542c16.529,-12.125 18.467,-34.429 15.429,-53.204Z" style="fill:#22c4ba;fill-rule:nonzero;"/><path d="M274.475,947.917l10.312,0.558l-0.054,1.792c-0.025,0.854 0.283,1.121 0.517,1.258c0.508,0.304 1.258,0.308 1.792,0.008c0.429,-0.233 0.629,-0.608 0.637,-1.167c0.038,-2.812 0.621,-9.05 1.425,-17.679c1.567,-16.85 3.937,-42.312 4.338,-64.992l0.037,-2.096l2.075,0.308c7.15,1.067 16.517,-2.4 21.7,-6.2c17.904,-13.133 16.896,-37.858 14.704,-51.429c-0.967,-5.946 -4.321,-17.967 -10.146,-20.879c-1.933,-0.971 -4.017,-0.842 -6.367,0.388c-8.483,4.45 -8.004,15.175 -7.5,26.525c0.554,12.483 1.183,26.633 -12.729,30.688l-2.167,0.629l-0.183,-2.25c-1.279,-15.746 -4.3,-21.371 -6.608,-23.308c-0.975,-0.825 -1.992,-1.158 -3.204,-1.046c-10.688,0.967 -9.871,24.662 -9.475,36.05c0.079,2.317 0.142,4.213 0.104,5.438c-0.187,6.008 -0.463,12.142 -0.742,18.329l-0.296,6.646l-1.446,0.258c-11.85,2.121 -15.183,-13.829 -18.129,-27.913c-1.896,-9.054 -3.858,-18.421 -7.554,-20.613c-4.012,-2.375 -7.329,-2.817 -9.858,-1.3c-5.488,3.292 -7.062,14.975 -6.767,21.563c0.704,15.612 4.808,36.067 20.387,44.875c5.375,3.037 14.163,6.042 20.729,5.504l2.004,-0.167l-0.012,2.008c-0.083,15.187 0.704,27.383 2.475,38.212Zm11.671,7.517c-0.979,0 -1.954,-0.25 -2.796,-0.758c-1.038,-0.625 -1.762,-1.575 -2.096,-2.713l-7.15,-0.383l-2.604,0.088l-0.396,-1.633c-1.912,-10.958 -2.8,-23.212 -2.788,-38.425c-7.958,-0.004 -16.687,-3.696 -20.85,-6.046c-17.042,-9.638 -21.504,-31.375 -22.25,-47.913c-0.296,-6.654 1.104,-20.417 8.55,-24.883c3.779,-2.262 8.367,-1.829 13.625,1.292c5.092,3.017 7.029,12.288 9.279,23.021c3.038,14.533 5.775,25.004 12.438,25.163l0.158,-3.567c0.279,-6.171 0.554,-12.283 0.738,-18.275c0.037,-1.175 -0.025,-2.983 -0.104,-5.2c-0.463,-13.471 -1.329,-38.558 12.821,-39.838c2.188,-0.208 4.175,0.433 5.908,1.892c3.946,3.321 6.471,11 7.692,23.433c8.938,-3.988 8.475,-14.346 7.95,-26.213c-0.533,-12 -1.088,-24.408 9.467,-29.942c3.429,-1.792 6.7,-1.942 9.721,-0.425c8.796,4.4 11.812,21.633 12.129,23.583c2.329,14.396 3.325,40.687 -16.158,54.983c-5.429,3.983 -14.583,7.483 -22.346,7.075c-0.504,22.3 -2.788,46.862 -4.317,63.275c-0.767,8.229 -1.371,14.721 -1.408,17.392c-0.029,1.879 -0.95,3.454 -2.529,4.333c-0.825,0.458 -1.754,0.683 -2.683,0.683Z" style="fill:#009e93;fill-rule:nonzero;"/><path d="M314.717,1041.554l-70.346,0c-3.754,0 -6.75,-2.454 -7.458,-6.104l-15.971,-81.987l6.625,-1.296l15.975,81.992c0.121,0.642 0.654,0.642 0.829,0.642l70.346,0c0.175,0 0.708,0 0.829,-0.637l15.846,-81.992l6.629,1.279l-15.846,81.996c-0.704,3.654 -3.7,6.108 -7.458,6.108Z" style="fill:#1d948e;fill-rule:nonzero;"/><path d="M221.654,927.079l116.763,0c1.992,0 3.621,2.196 3.621,4.892l0,17.75c0,2.696 -1.629,4.896 -3.621,4.896l-116.763,0c-1.987,0 -3.617,-2.2 -3.617,-4.896l0,-17.75c0,-2.696 1.629,-4.892 3.617,-4.892Z" style="fill:#c9d4d3;fill-rule:nonzero;"/><path d="M221.654,928.917c-0.837,0 -1.779,1.308 -1.779,3.054l0,17.754c0,1.746 0.942,3.05 1.779,3.05l116.763,0c0.842,0 1.783,-1.304 1.783,-3.05l0,-17.754c0,-1.746 -0.942,-3.054 -1.783,-3.054l-116.763,0Zm116.763,27.537l-116.763,0c-3.008,0 -5.454,-3.021 -5.454,-6.729l0,-17.754c0,-3.713 2.446,-6.733 5.454,-6.733l116.763,0c3.012,0 5.458,3.021 5.458,6.733l0,17.754c0,3.708 -2.446,6.729 -5.458,6.729Z" style="fill:#009e93;fill-rule:nonzero;"/><path d="M221.654,928.617c-0.983,0 -2.079,1.375 -2.079,3.354l0,17.75c0,1.979 1.096,3.358 2.079,3.358l116.763,0c0.987,0 2.083,-1.379 2.083,-3.358l0,-17.75c0,-1.979 -1.096,-3.354 -2.083,-3.354l-116.763,0Zm116.763,27.538l-116.763,0c-2.842,0 -5.154,-2.883 -5.154,-6.433l0,-17.75c0,-3.546 2.313,-6.429 5.154,-6.429l116.763,0c2.846,0 5.158,2.883 5.158,6.429l0,17.75c0,3.55 -2.312,6.433 -5.158,6.433Z" style="fill:#c9d4d3;fill-rule:nonzero;"/><path d="M221.867,930.454c-0.167,0.183 -0.454,0.7 -0.454,1.521l0,17.75c0,0.937 0.379,1.483 0.521,1.575l116.483,-0.062c-0.138,-0.029 0.242,-0.575 0.242,-1.512l0,-17.75c0,-0.946 -0.379,-1.487 -0.517,-1.583l-116.275,0.062Zm116.55,27.537l-116.763,0c-3.854,0 -6.992,-3.708 -6.992,-8.267l0,-17.75c0,-4.562 3.138,-8.275 6.992,-8.275l116.763,0c3.858,0 6.996,3.713 6.996,8.275l0,17.75c0,4.558 -3.138,8.267 -6.996,8.267Z" style="fill:#009e93;fill-rule:nonzero;"/><path d="M234.387,857.375c1.921,0.246 3.837,0.488 5.758,0.733c2.062,0.267 2.046,-2.979 0,-3.242c-1.921,-0.242 -3.838,-0.487 -5.758,-0.733c-2.062,-0.263 -2.046,2.979 0,3.242Z" style="fill:#009e93;fill-rule:nonzero;"/><path d="M242.863,831.887l0,2.879c0,2.087 3.242,2.092 3.242,0l0,-2.879c0,-2.087 -3.242,-2.087 -3.242,0Z" style="fill:#009e93;fill-rule:nonzero;"/><path d="M254.071,861.604c1.408,-0.783 2.813,-1.562 4.217,-2.346c1.825,-1.017 0.192,-3.817 -1.633,-2.8c-1.408,0.783 -2.813,1.567 -4.217,2.35c-1.825,1.013 -0.192,3.813 1.633,2.796Z" style="fill:#009e93;fill-rule:nonzero;"/><path d="M237.425,898.892c1.696,-1.183 3.387,-2.367 5.079,-3.55c1.696,-1.183 0.079,-3.996 -1.637,-2.796c-1.692,1.183 -3.383,2.367 -5.075,3.55c-1.696,1.188 -0.079,3.996 1.633,2.796Z" style="fill:#009e93;fill-rule:nonzero;"/><path d="M225.279,871.025c1.2,0.471 2.404,0.946 3.608,1.417c1.942,0.762 2.787,-2.371 0.863,-3.125c-1.204,-0.471 -2.408,-0.946 -3.612,-1.417c-1.942,-0.762 -2.783,2.371 -0.858,3.125Z" style="fill:#009e93;fill-rule:nonzero;"/><path d="M248.804,886.071c0.771,0.058 1.229,0.425 1.704,0.996c1.329,1.613 3.612,-0.692 2.292,-2.292c-1.042,-1.258 -2.392,-1.829 -3.996,-1.942c-2.083,-0.15 -2.071,3.092 0,3.237Z" style="fill:#009e93;fill-rule:nonzero;"/><path d="M255.912,901.321c-0.35,2.267 -0.1,4.204 0.792,6.317c0.808,1.912 3.604,0.262 2.8,-1.638c-0.525,-1.237 -0.671,-2.496 -0.467,-3.817c0.317,-2.042 -2.804,-2.921 -3.125,-0.863Z" style="fill:#009e93;fill-rule:nonzero;"/><path d="M272.846,901.917c0.958,0.254 1.912,0.513 2.871,0.767c2.017,0.538 2.875,-2.587 0.858,-3.125c-0.954,-0.254 -1.912,-0.513 -2.867,-0.767c-2.017,-0.537 -2.879,2.588 -0.863,3.125Z" style="fill:#009e93;fill-rule:nonzero;"/><path d="M283.192,870.058c-0.167,1.842 0.525,3.521 1.942,4.712c1.583,1.337 3.887,-0.942 2.292,-2.292c-0.829,-0.696 -1.088,-1.358 -0.992,-2.421c0.192,-2.075 -3.054,-2.063 -3.242,0Z" style="fill:#009e93;fill-rule:nonzero;"/><path d="M279.079,846.9c-0.942,1.288 -1.108,2.596 -0.837,4.133c0.362,2.05 3.487,1.183 3.125,-0.863c-0.1,-0.654 0.067,-1.196 0.513,-1.633c1.233,-1.683 -1.575,-3.3 -2.8,-1.638Z" style="fill:#009e93;fill-rule:nonzero;"/><path d="M296.875,856.375l0,2.879c0,2.087 3.242,2.087 3.242,0l0,-2.879c0,-2.087 -3.242,-2.092 -3.242,0Z" style="fill:#009e93;fill-rule:nonzero;"/><path d="M266.713,851.292c0.717,0.479 1.438,0.958 2.158,1.442c1.742,1.158 3.367,-1.646 1.637,-2.8c-0.721,-0.479 -1.442,-0.958 -2.162,-1.442c-1.737,-1.158 -3.362,1.646 -1.633,2.8Z" style="fill:#009e93;fill-rule:nonzero;"/><path d="M272.133,824.404c0.625,0.729 0.938,1.483 1.008,2.442c0.163,2.067 3.404,2.083 3.242,0c-0.142,-1.858 -0.75,-3.321 -1.958,-4.733c-1.358,-1.587 -3.642,0.712 -2.292,2.292Z" style="fill:#009e93;fill-rule:nonzero;"/><path d="M280.313,814.604l0,4.321c0,2.083 3.242,2.087 3.242,0l0,-4.321c0,-2.088 -3.242,-2.092 -3.242,0Z" style="fill:#009e93;fill-rule:nonzero;"/><path d="M300.35,833.642c0.467,0.492 0.933,0.983 1.404,1.475c1.442,1.512 3.729,-0.779 2.292,-2.292c-0.471,-0.492 -0.937,-0.983 -1.404,-1.475c-1.442,-1.512 -3.729,0.779 -2.292,2.292Z" style="fill:#009e93;fill-rule:nonzero;"/><path d="M303.562,814.329c1.438,0.083 2.875,0.162 4.308,0.246c2.083,0.121 2.079,-3.121 0,-3.242c-1.433,-0.079 -2.871,-0.163 -4.308,-0.246c-2.083,-0.117 -2.075,3.121 0,3.242Z" style="fill:#009e93;fill-rule:nonzero;"/><path d="M308.154,788.379c0.958,0.963 1.921,1.921 2.879,2.883c1.479,1.475 3.771,-0.817 2.292,-2.292c-0.958,-0.962 -1.921,-1.921 -2.879,-2.883c-1.475,-1.475 -3.771,0.817 -2.292,2.292Z" style="fill:#009e93;fill-rule:nonzero;"/><path d="M320.642,780.033l0,5.042c0,2.083 3.242,2.088 3.242,0l0,-5.042c0,-2.083 -3.242,-2.088 -3.242,0Z" style="fill:#009e93;fill-rule:nonzero;"/><path d="M326.517,810.362c0.475,-0.725 0.946,-1.446 1.429,-2.171c1.15,-1.746 -1.654,-3.371 -2.8,-1.633c-0.475,0.721 -0.95,1.446 -1.429,2.167c-1.15,1.746 1.654,3.371 2.8,1.637Z" style="fill:#009e93;fill-rule:nonzero;"/><path d="M315.529,842.188c1.204,-0.467 2.408,-0.937 3.617,-1.404c1.921,-0.746 1.083,-3.883 -0.863,-3.125c-1.204,0.467 -2.408,0.937 -3.617,1.404c-1.921,0.75 -1.083,3.883 0.863,3.125Z" style="fill:#009e93;fill-rule:nonzero;"/><path d="M329.875,837.667c1.196,-0.246 2.392,-0.496 3.596,-0.746c2.037,-0.421 1.175,-3.546 -0.863,-3.125c-1.204,0.25 -2.396,0.496 -3.596,0.746c-2.046,0.425 -1.175,3.55 0.863,3.125Z" style="fill:#009e93;fill-rule:nonzero;"/><path d="M320.642,852.775l0,0.717c0,2.088 3.242,2.092 3.242,0l0,-0.717c0,-2.087 -3.242,-2.092 -3.242,0Z" style="fill:#009e93;fill-rule:nonzero;"/><path d="M292.813,902.396c0.721,-0.479 1.442,-0.962 2.162,-1.442c1.725,-1.15 0.104,-3.958 -1.637,-2.796c-0.721,0.479 -1.442,0.958 -2.163,1.438c-1.725,1.15 -0.104,3.958 1.638,2.8Z" style="fill:#009e93;fill-rule:nonzero;"/><path d="M290.921,914.338c1.292,-1.233 2.675,-1.954 4.412,-2.358c2.029,-0.475 1.171,-3.6 -0.863,-3.125c-2.254,0.525 -4.171,1.596 -5.837,3.192c-1.513,1.446 0.783,3.738 2.287,2.292Z" style="fill:#009e93;fill-rule:nonzero;"/><path d="M277.575,916.287c0.242,0.479 0.488,0.958 0.729,1.433c0.946,1.862 3.746,0.221 2.8,-1.633c-0.246,-0.479 -0.487,-0.958 -0.733,-1.433c-0.946,-1.862 -3.742,-0.221 -2.796,1.633Z" style="fill:#009e93;fill-rule:nonzero;"/><path d="M265.233,919.775c1.817,0.942 3.592,1.179 5.596,0.775c2.042,-0.412 1.179,-3.537 -0.863,-3.125c-1.138,0.229 -2.079,0.079 -3.1,-0.45c-1.846,-0.963 -3.487,1.833 -1.633,2.8Z" style="fill:#009e93;fill-rule:nonzero;"/><path d="M292.025,889.033c2.154,-0.267 4.313,-0.537 6.471,-0.808c2.042,-0.258 2.067,-3.5 0,-3.242c-2.158,0.271 -4.317,0.542 -6.471,0.813c-2.042,0.254 -2.067,3.5 0,3.237Z" style="fill:#009e93;fill-rule:nonzero;"/><path d="M582.275,747.013c34.883,-31.533 69.762,-63.067 104.646,-94.6c5.167,-4.671 -2.492,-12.292 -7.642,-7.638c-34.879,31.533 -69.762,63.067 -104.642,94.6c-5.167,4.671 2.492,12.292 7.638,7.638Z" style="fill:#fff;fill-rule:nonzero;"/><path d="M700.537,795.267c34.883,-31.533 69.762,-63.067 104.646,-94.604c5.167,-4.671 -2.492,-12.287 -7.642,-7.637c-34.879,31.533 -69.763,63.071 -104.642,94.604c-5.167,4.671 2.492,12.292 7.637,7.637Z" style="fill:#fff;fill-rule:nonzero;"/><path d="M572.033,831.008c73.108,-71.287 146.217,-142.575 219.325,-213.863c4.983,-4.862 -2.658,-12.5 -7.642,-7.642c-73.104,71.292 -146.212,142.579 -219.321,213.867c-4.988,4.862 2.654,12.496 7.637,7.637Z" style="fill:#fff;fill-rule:nonzero;"/><rect x="902.55" y="165.979" width="4.7" height="301.825" style="fill:#1d948e;fill-rule:nonzero;"/><path d="M924.058,467.804c0,10.583 -8.579,19.158 -19.158,19.158c-10.579,0 -19.158,-8.575 -19.158,-19.158c0,-10.579 8.579,-19.154 19.158,-19.154c10.579,0 19.158,8.575 19.158,19.154Z" style="fill:#1d948e;fill-rule:nonzero;"/><path d="M905.167,532.083c-0.317,0 -6.571,-0.063 -11.138,-4.617c-3.046,-3.042 -4.587,-7.267 -4.587,-12.554c0,-1.4 1.133,-2.538 2.533,-2.538c1.4,0 2.533,1.138 2.533,2.538c0,3.892 1.046,6.908 3.104,8.963c3.067,3.058 7.513,3.137 7.554,3.137c7.154,0 12.967,-5.817 12.967,-12.962c0,-7.15 -5.812,-12.962 -12.962,-12.962c-1.4,0 -2.533,-1.138 -2.533,-2.538l0,-14.083c0,-1.404 1.133,-2.538 2.533,-2.538c1.4,0 2.538,1.133 2.538,2.538l0,11.725c8.746,1.237 15.496,8.775 15.496,17.858c0,9.946 -8.088,18.033 -18.033,18.033l-0.004,0Z" style="fill:#1d948e;fill-rule:nonzero;"/><path d="M804.554,543.879c-0.971,-0.167 -1.771,-0.942 -1.921,-1.971c-0.192,-1.288 0.696,-2.479 1.983,-2.671l103.704,-15.275c1.287,-0.196 2.479,0.696 2.667,1.979c0.192,1.287 -0.696,2.479 -1.983,2.671l-103.704,15.275c-0.254,0.042 -0.504,0.033 -0.746,-0.008Z" style="fill:#1d948e;fill-rule:nonzero;"/><path d="M1003.621,578.392c-0.233,-0.042 -0.462,-0.117 -0.683,-0.233l-95.362,-49.788c-1.15,-0.6 -1.596,-2.021 -0.996,-3.171c0.6,-1.154 2.017,-1.604 3.171,-1l95.362,49.792c1.15,0.6 1.596,2.021 0.996,3.171c-0.488,0.929 -1.508,1.4 -2.488,1.229Z" style="fill:#1d948e;fill-rule:nonzero;"/><path d="M995.842,777.475l-253.983,-44.133c-13.304,-2.312 -22.221,-14.975 -19.908,-28.283l25.412,-146.238c2.312,-13.308 14.975,-22.221 28.283,-19.908l253.979,44.133c13.308,2.312 22.221,14.975 19.908,28.279l-25.412,146.242c-2.312,13.304 -14.975,22.221 -28.279,19.908Z" style="fill:#fff;fill-rule:nonzero;"/><path d="M772.183,541.933c-10.55,0 -19.917,7.592 -21.783,18.338l-25.1,144.45c-1.013,5.821 0.304,11.688 3.704,16.521c3.404,4.833 8.483,8.05 14.304,9.063l252.196,43.817c12,2.108 23.488,-5.987 25.579,-18.004l25.1,-144.45c1.013,-5.821 -0.304,-11.692 -3.704,-16.521c-3.4,-4.833 -8.483,-8.05 -14.3,-9.062l-252.196,-43.825c-1.275,-0.221 -2.546,-0.325 -3.8,-0.325Zm227.121,239.004c-1.621,0 -3.263,-0.138 -4.917,-0.425l-252.187,-43.821c-7.529,-1.308 -14.096,-5.471 -18.496,-11.717c-4.396,-6.25 -6.096,-13.837 -4.788,-21.367l25.1,-144.45c2.7,-15.538 17.542,-25.979 33.075,-23.283l252.192,43.821c7.529,1.308 14.1,5.467 18.496,11.717c4.396,6.246 6.1,13.833 4.796,21.363l-25.1,144.45c-2.421,13.892 -14.529,23.708 -28.171,23.712Z" style="fill:#1d948e;fill-rule:nonzero;"/><path d="M993.938,761.637l-244.942,-42.562c-8.504,-1.475 -14.196,-9.562 -12.721,-18.067l23.204,-133.542c1.479,-8.5 9.567,-14.196 18.071,-12.721l244.942,42.562c8.5,1.479 14.196,9.567 12.717,18.071l-23.204,133.537c-1.475,8.504 -9.567,14.2 -18.067,12.721Z" style="fill:#c9d4d3;fill-rule:nonzero;"/><path d="M993.917,758.346c3.408,0.587 6.854,-0.183 9.683,-2.171c2.833,-1.992 4.721,-4.971 5.308,-8.379l23.008,-132.404c1.225,-7.037 -3.513,-13.767 -10.55,-14.987l-243.8,-42.367c-7.029,-1.213 -13.767,3.512 -14.996,10.554l-23.004,132.4c-0.592,3.413 0.179,6.85 2.175,9.679c1.992,2.833 4.967,4.721 8.379,5.312l243.796,42.363Zm2.262,6.679c-1.117,0 -2.246,-0.096 -3.367,-0.292l-243.8,-42.367c-5.117,-0.887 -9.583,-3.717 -12.571,-7.962c-2.992,-4.246 -4.15,-9.4 -3.258,-14.517l23.004,-132.404c1.833,-10.563 11.908,-17.675 22.488,-15.829l243.796,42.362c10.567,1.838 17.671,11.921 15.833,22.488l-23.004,132.396c-0.892,5.121 -3.721,9.583 -7.967,12.575c-3.313,2.333 -7.183,3.55 -11.154,3.55Z" style="fill:#009e93;fill-rule:nonzero;"/><path d="M877.738,741.446l63.383,-58.088l35.075,75.196l-98.458,-17.108Z" style="fill:#fff;fill-rule:nonzero;"/><path d="M882.442,740.071l90.042,15.65l-32.079,-68.775l-57.962,53.125Zm97.462,21.321l-106.867,-18.567l68.792,-63.046l38.075,81.613Z" style="fill:#1d948e;fill-rule:nonzero;"/><path d="M752.417,719.671l112.362,-102.983l62.187,133.312l-174.55,-30.329Z" style="fill:#fff;fill-rule:nonzero;"/><path d="M757.113,718.296l166.146,28.871l-59.192,-126.896l-106.954,98.025Zm173.567,34.542l-182.963,-31.792l117.771,-107.938l65.192,139.729Z" style="fill:#1d948e;fill-rule:nonzero;"/><path d="M998.392,636.213c-1.488,8.55 -9.621,14.279 -18.171,12.792c-8.55,-1.487 -14.275,-9.621 -12.792,-18.171c1.487,-8.55 9.621,-14.275 18.171,-12.792c8.55,1.487 14.279,9.621 12.792,18.171Z" style="fill:#fff;fill-rule:nonzero;"/><path d="M982.883,619.967c-2.771,0 -5.467,0.846 -7.775,2.475c-2.962,2.083 -4.933,5.196 -5.554,8.762c-0.617,3.567 0.192,7.158 2.271,10.121c2.083,2.958 5.2,4.929 8.767,5.55c3.542,0.621 7.154,-0.183 10.117,-2.271c2.962,-2.083 4.933,-5.196 5.554,-8.763c1.279,-7.362 -3.671,-14.392 -11.033,-15.671c-0.783,-0.137 -1.567,-0.204 -2.346,-0.204Zm0.063,31.433c-1.025,0 -2.063,-0.087 -3.1,-0.267c-9.708,-1.687 -16.233,-10.958 -14.546,-20.667c0.817,-4.708 3.417,-8.813 7.325,-11.558c3.896,-2.746 8.633,-3.812 13.346,-2.996c4.7,0.817 8.808,3.417 11.554,7.321c2.746,3.904 3.808,8.646 2.992,13.35c-0.813,4.704 -3.413,8.808 -7.321,11.558c-3.042,2.142 -6.6,3.258 -10.25,3.258Z" style="fill:#1d948e;fill-rule:nonzero;"/><rect x="863.662" y="155.825" width="235.529" height="25.921" style="fill:#c9d4d3;fill-rule:nonzero;"/><path d="M1233.417,683.942l62.725,0l0,-675.863l-62.725,0l0,675.863Zm70.458,7.738l-78.192,0l0,-691.333l78.192,0l0,691.333Z" style="fill:#1d948e;fill-rule:nonzero;"/><path d="M1234.5,68.392l60.558,0l0,-60.554l-60.558,0l0,60.554Zm68.396,7.838l-76.229,0l0,-76.229l76.229,0l0,76.229Z" style="fill:#1d948e;fill-rule:nonzero;"/><path d="M1296.204,75.079l-68.392,-68.392l5.542,-5.538l68.392,68.392l-5.542,5.538Z" style="fill:#1d948e;fill-rule:nonzero;"/><path d="M1233.354,75.079l-5.542,-5.538l68.392,-68.392l5.542,5.538l-68.392,68.392Z" style="fill:#1d948e;fill-rule:nonzero;"/><path d="M1234.5,136.783l60.558,0l0,-60.554l-60.558,0l0,60.554Zm68.396,7.838l-76.229,0l0,-76.229l76.229,0l0,76.229Z" style="fill:#1d948e;fill-rule:nonzero;"/><path d="M1296.204,143.471l-68.392,-68.392l5.542,-5.538l68.392,68.392l-5.542,5.538Z" style="fill:#1d948e;fill-rule:nonzero;"/><path d="M1233.354,143.471l-5.542,-5.538l68.392,-68.392l5.542,5.538l-68.392,68.392Z" style="fill:#1d948e;fill-rule:nonzero;"/><path d="M1234.5,205.179l60.558,0l0,-60.558l-60.558,0l0,60.558Zm68.396,7.833l-76.229,0l0,-76.229l76.229,0l0,76.229Z" style="fill:#1d948e;fill-rule:nonzero;"/><path d="M1296.204,211.867l-68.392,-68.396l5.542,-5.538l68.392,68.392l-5.542,5.542Z" style="fill:#1d948e;fill-rule:nonzero;"/><path d="M1233.354,211.867l-5.542,-5.542l68.392,-68.392l5.542,5.538l-68.392,68.396Z" style="fill:#1d948e;fill-rule:nonzero;"/><path d="M1234.5,273.571l60.558,0l0,-60.558l-60.558,0l0,60.558Zm68.396,7.837l-76.229,0l0,-76.229l76.229,0l0,76.229Z" style="fill:#1d948e;fill-rule:nonzero;"/><path d="M1296.204,280.258l-68.392,-68.392l5.542,-5.542l68.392,68.392l-5.542,5.542Z" style="fill:#1d948e;fill-rule:nonzero;"/><path d="M1233.354,280.258l-5.542,-5.542l68.392,-68.392l5.542,5.542l-68.392,68.392Z" style="fill:#1d948e;fill-rule:nonzero;"/><path d="M1234.5,341.963l60.558,0l0,-60.554l-60.558,0l0,60.554Zm68.396,7.837l-76.229,0l0,-76.229l76.229,0l0,76.229Z" style="fill:#1d948e;fill-rule:nonzero;"/><path d="M1296.204,348.65l-68.392,-68.392l5.542,-5.542l68.392,68.396l-5.542,5.537Z" style="fill:#1d948e;fill-rule:nonzero;"/><path d="M1233.354,348.65l-5.542,-5.537l68.392,-68.396l5.542,5.542l-68.392,68.392Z" style="fill:#1d948e;fill-rule:nonzero;"/><path d="M1234.5,410.358l60.558,0l0,-60.558l-60.558,0l0,60.558Zm68.396,7.833l-76.229,0l0,-76.229l76.229,0l0,76.229Z" style="fill:#1d948e;fill-rule:nonzero;"/><path d="M1296.204,417.046l-68.392,-68.396l5.542,-5.537l68.392,68.392l-5.542,5.542Z" style="fill:#1d948e;fill-rule:nonzero;"/><path d="M1233.354,417.046l-5.542,-5.542l68.392,-68.392l5.542,5.537l-68.392,68.396Z" style="fill:#1d948e;fill-rule:nonzero;"/><path d="M1234.5,478.75l60.558,0l0,-60.558l-60.558,0l0,60.558Zm68.396,7.838l-76.229,0l0,-76.229l76.229,0l0,76.229Z" style="fill:#1d948e;fill-rule:nonzero;"/><path d="M1296.204,485.438l-68.392,-68.392l5.542,-5.542l68.392,68.392l-5.542,5.542Z" style="fill:#1d948e;fill-rule:nonzero;"/><path d="M1233.354,485.438l-5.542,-5.542l68.392,-68.392l5.542,5.542l-68.392,68.392Z" style="fill:#1d948e;fill-rule:nonzero;"/><path d="M1234.5,547.142l60.558,0l0,-60.554l-60.558,0l0,60.554Zm68.396,7.838l-76.229,0l0,-76.229l76.229,0l0,76.229Z" style="fill:#1d948e;fill-rule:nonzero;"/><path d="M1296.204,553.829l-68.392,-68.392l5.542,-5.542l68.392,68.396l-5.542,5.538Z" style="fill:#1d948e;fill-rule:nonzero;"/><path d="M1233.354,553.829l-5.542,-5.538l68.392,-68.396l5.542,5.542l-68.392,68.392Z" style="fill:#1d948e;fill-rule:nonzero;"/><path d="M1234.5,615.533l60.558,0l0,-60.554l-60.558,0l0,60.554Zm68.396,7.838l-76.229,0l0,-76.229l76.229,0l0,76.229Z" style="fill:#1d948e;fill-rule:nonzero;"/><path d="M1296.204,622.225l-68.392,-68.396l5.542,-5.538l68.392,68.392l-5.542,5.542Z" style="fill:#1d948e;fill-rule:nonzero;"/><path d="M1233.354,622.225l-5.542,-5.542l68.392,-68.392l5.542,5.538l-68.392,68.396Z" style="fill:#1d948e;fill-rule:nonzero;"/><path d="M1234.5,683.929l60.558,0l0,-60.558l-60.558,0l0,60.558Zm68.396,7.833l-76.229,0l0,-76.229l76.229,0l0,76.229Z" style="fill:#1d948e;fill-rule:nonzero;"/><path d="M1296.204,690.621l-68.392,-68.396l5.542,-5.542l68.392,68.392l-5.542,5.546Z" style="fill:#1d948e;fill-rule:nonzero;"/><path d="M1233.354,690.621l-5.542,-5.546l68.392,-68.392l5.542,5.542l-68.392,68.396Z" style="fill:#1d948e;fill-rule:nonzero;"/><path d="M1370.592,135.754l60.554,0l0,-60.558l-60.554,0l0,60.558Zm68.392,7.838l-76.229,0l0,-76.229l76.229,0l0,76.229Z" style="fill:#1d948e;fill-rule:nonzero;"/><path d="M1369.442,142.442l-5.542,-5.542l68.392,-68.392l5.546,5.542l-68.396,68.392Z" style="fill:#1d948e;fill-rule:nonzero;"/><path d="M1432.292,142.442l-68.392,-68.392l5.542,-5.542l68.396,68.392l-5.546,5.542Z" style="fill:#1d948e;fill-rule:nonzero;"/><path d="M1302.196,135.754l60.558,0l0,-60.558l-60.558,0l0,60.558Zm68.396,7.838l-76.229,0l0,-76.229l76.229,0l0,76.229Z" style="fill:#1d948e;fill-rule:nonzero;"/><path d="M1301.05,142.442l-5.542,-5.542l68.392,-68.392l5.542,5.542l-68.392,68.392Z" style="fill:#1d948e;fill-rule:nonzero;"/><path d="M1363.9,142.442l-68.392,-68.392l5.542,-5.542l68.392,68.392l-5.542,5.542Z" style="fill:#1d948e;fill-rule:nonzero;"/><path d="M1233.804,135.754l60.558,0l0,-60.558l-60.558,0l0,60.558Zm68.392,7.838l-76.229,0l0,-76.229l76.229,0l0,76.229Z" style="fill:#1d948e;fill-rule:nonzero;"/><path d="M1165.413,135.754l60.554,0l0,-60.558l-60.554,0l0,60.558Zm68.392,7.838l-76.229,0l0,-76.229l76.229,0l0,76.229Z" style="fill:#1d948e;fill-rule:nonzero;"/><path d="M1164.263,142.442l-5.538,-5.542l68.392,-68.392l5.538,5.542l-68.392,68.392Z" style="fill:#1d948e;fill-rule:nonzero;"/><path d="M1227.117,142.442l-68.392,-68.392l5.538,-5.542l68.392,68.392l-5.538,5.542Z" style="fill:#1d948e;fill-rule:nonzero;"/><path d="M1097.017,135.754l60.558,0l0,-60.558l-60.558,0l0,60.558Zm68.396,7.838l-76.229,0l0,-76.229l76.229,0l0,76.229Z" style="fill:#1d948e;fill-rule:nonzero;"/><path d="M1095.871,142.442l-5.542,-5.542l68.396,-68.392l5.538,5.542l-68.392,68.392Z" style="fill:#1d948e;fill-rule:nonzero;"/><path d="M1158.725,142.442l-68.396,-68.392l5.542,-5.542l68.392,68.392l-5.538,5.542Z" style="fill:#1d948e;fill-rule:nonzero;"/><path d="M1028.625,135.754l60.558,0l0,-60.558l-60.558,0l0,60.558Zm68.392,7.838l-76.229,0l0,-76.229l76.229,0l0,76.229Z" style="fill:#1d948e;fill-rule:nonzero;"/><path d="M1024.708,143.592l-68.396,0c-1.583,0 -3.013,-0.954 -3.617,-2.421c-0.608,-1.463 -0.271,-3.15 0.85,-4.271l68.392,-68.392l5.542,5.542l-61.708,61.704l57.313,0l67.246,-67.246l5.542,5.542l-68.392,68.392c-0.738,0.733 -1.733,1.15 -2.771,1.15Z" style="fill:#1d948e;fill-rule:nonzero;"/><path d="M1090.329,142.442l-68.392,-68.392l5.542,-5.542l68.392,68.392l-5.542,5.542Z" style="fill:#1d948e;fill-rule:nonzero;"/><path d="M1233.737,760.071l62.25,0l0,-60.558l-62.25,0l0,60.558Zm70.304,7.833l-78.358,0l0,-76.225l78.358,0l0,76.225Z" style="fill:#1d948e;fill-rule:nonzero;"/><path d="M1297.167,766.758l-70.3,-68.392l5.692,-5.537l70.304,68.387l-5.696,5.542Z" style="fill:#1d948e;fill-rule:nonzero;"/><path d="M1232.558,766.758l-5.692,-5.542l70.3,-68.387l5.696,5.537l-70.304,68.392Z" style="fill:#1d948e;fill-rule:nonzero;"/><path d="M1233.737,1033.642l62.25,0l0,-60.558l-62.25,0l0,60.558Zm70.304,7.833l-78.358,0l0,-76.225l78.358,0l0,76.225Z" style="fill:#1d948e;fill-rule:nonzero;"/><path d="M1297.167,1040.329l-70.3,-68.392l5.692,-5.542l70.304,68.392l-5.696,5.542Z" style="fill:#1d948e;fill-rule:nonzero;"/><path d="M1232.558,1040.329l-5.692,-5.542l70.3,-68.392l5.696,5.542l-70.304,68.392Z" style="fill:#1d948e;fill-rule:nonzero;"/><path d="M1233.737,821.983l62.25,0l0,-60.558l-62.25,0l0,60.558Zm70.304,7.833l-78.358,0l0,-76.229l78.358,0l0,76.229Z" style="fill:#1d948e;fill-rule:nonzero;"/><path d="M1297.167,828.671l-70.3,-68.396l5.692,-5.537l70.304,68.392l-5.696,5.542Z" style="fill:#1d948e;fill-rule:nonzero;"/><path d="M1232.558,828.671l-5.692,-5.542l70.3,-68.392l5.696,5.537l-70.304,68.396Z" style="fill:#1d948e;fill-rule:nonzero;"/><path d="M1233.737,890.375l62.25,0l0,-60.558l-62.25,0l0,60.558Zm70.304,7.833l-78.358,0l0,-76.225l78.358,0l0,76.225Z" style="fill:#1d948e;fill-rule:nonzero;"/><path d="M1297.167,897.062l-70.3,-68.392l5.692,-5.542l70.304,68.392l-5.696,5.542Z" style="fill:#1d948e;fill-rule:nonzero;"/><path d="M1232.558,897.062l-5.692,-5.542l70.3,-68.392l5.696,5.542l-70.304,68.392Z" style="fill:#1d948e;fill-rule:nonzero;"/><path d="M1233.737,958.767l62.25,0l0,-60.558l-62.25,0l0,60.558Zm70.304,7.833l-78.358,0l0,-76.225l78.358,0l0,76.225Z" style="fill:#1d948e;fill-rule:nonzero;"/><path d="M1297.167,965.454l-70.3,-68.392l5.692,-5.542l70.304,68.392l-5.696,5.542Z" style="fill:#1d948e;fill-rule:nonzero;"/><path d="M1232.558,965.454l-5.692,-5.542l70.3,-68.392l5.696,5.542l-70.304,68.392Z" style="fill:#1d948e;fill-rule:nonzero;"/><path d="M429.571,414.808c8.342,0 8.358,-12.963 0,-12.963c-8.342,0 -8.354,12.963 0,12.963Z" style="fill:#009e93;fill-rule:nonzero;"/><path d="M1132.479,279.412c8.342,0 8.358,-12.962 0,-12.962c-8.342,0 -8.354,12.962 0,12.962Z" style="fill:#009e93;fill-rule:nonzero;"/><path d="M1423.438,736.733l2.883,0" style="fill:none;fill-rule:nonzero;"/><path d="M1423.438,743.217l2.883,0c3.388,0 6.638,-2.979 6.479,-6.483c-0.154,-3.508 -2.846,-6.479 -6.479,-6.479l-2.883,0c-3.387,0 -6.637,2.979 -6.479,6.479c0.154,3.512 2.846,6.483 6.479,6.483Z" style="fill:#009e93;fill-rule:nonzero;"/><path d="M173.183,838.283c8.337,0 8.354,-12.963 0,-12.963c-8.342,0 -8.358,12.963 0,12.963Z" style="fill:#009e93;fill-rule:nonzero;"/><path d="M792.55,216.037c8.342,0 8.354,-12.967 0,-12.967c-8.342,0 -8.354,12.967 0,12.967Z" style="fill:#009e93;fill-rule:nonzero;"/></g></svg>